<?xml version="1.0" standalone="no"?>
<!DOCTYPE svg PUBLIC "-//W3C//DTD SVG 1.1//EN" "http://www.w3.org/Graphics/SVG/1.1/DTD/svg11.dtd">
<svg xmlns="http://www.w3.org/2000/svg" version="1.2" viewBox="0 0 581 436" width="581" height="436">
	<title>unnamed</title>
	<style>
		.s0 { fill: #ffffff } 
	</style>
	<path id="Preencher com Cor Sólida 1" fill-rule="evenodd" class="s0" d="m22.5 28.7c-1.4 0.3-1.9 1.1-1.7 2.9 0.1 1.3 0.8 2.6 1.4 2.7 0.7 0.2 4.6 1.5 8.7 2.8 5.4 1.7 8.6 3.5 11.3 6.2 2.1 2 4.6 5.4 5.7 7.5 1 2 2.5 6.2 3.2 9.2 1.2 4.6 1.4 31.9 1.4 162 0 128.7-0.2 157.5-1.4 162-0.7 3-2.5 7.5-3.9 10-1.4 2.5-4.2 6-6.1 7.8-2 1.8-5.4 3.9-7.6 4.7-2.2 0.8-5.9 1.9-8.3 2.5-3.8 0.9-4.2 1.3-4.2 4v3h319.5c1.1-16.7 2.1-28.5 3-37 0.8-8.5 1.9-19.3 2.5-24 0.5-4.7 1.7-15.2 2.5-23.5 0.8-8.2 1.5-17.1 1.5-19.8 0-4.5-0.1-4.7-2.7-4.4-2.4 0.2-2.9 1.1-6.3 10.7-1.9 5.8-5.3 13.6-7.4 17.5-2.1 3.9-6.2 10.4-9.2 14.5-3 4.1-7.7 10-10.6 13.1-2.9 3-8.9 8.2-13.3 11.5-4.4 3.3-10.9 7.7-14.5 9.6-3.6 2-11 5.2-16.5 7.3-5.5 2-14.7 4.8-20.5 6.1-5.9 1.4-17 2.9-25.5 3.4-8.3 0.6-32.8 0.9-54.5 0.8l-39.5-0.3-1-373c-80.6-0.1-104.9 0-106 0.2zm164.9 0c-0.4 0.4-0.7 1.8-0.6 3.2 0.2 2.3 0.7 2.7 4.7 3.4 2.5 0.4 6.6 1.8 9.2 3.1 2.7 1.3 6.4 4.1 8.4 6.2 1.9 2.2 4.3 6.2 5.2 8.9 0.9 2.8 2.1 8.1 2.7 12 0.6 4.1 1 36.8 1 79.8v72.7c17.4-17.5 23.6-23.5 25-24.5 1.4-1.1 5.2-3.9 8.5-6.2 3.3-2.2 10.3-6.3 15.5-9.1 5.2-2.7 13.7-6.4 18.8-8.3l9.3-3.4c-0.1-78.3 0.3-99.5 1-103.5 0.6-3.6 2.1-8.7 3.4-11.5 1.3-2.7 4.1-6.5 6.2-8.4 2.1-1.9 5.8-4.3 8.3-5.3 2.5-1.1 6.4-2.2 8.8-2.6 4.1-0.7 4.3-0.9 4-3.7l-0.3-3c-107.2-0.3-138.7-0.1-139.1 0.2zm243.8 0.1c-5.3 0.2-6.3 0.5-6.7 2.2-0.3 1.1-0.3 2.3-0.1 2.8 0.2 0.4 2.3 1.1 4.7 1.5 2.4 0.5 6.2 1.6 8.4 2.6 2.2 1 5.6 3.3 7.6 5.2 2 1.9 4.5 5.2 5.6 7.4 1.1 2.2 2.7 6.5 3.4 9.5 1.1 4.4 1.4 18.4 1.4 70.5v65l-159 1c-14.7 6.5-22.4 10.8-26.5 13.6-4.1 2.9-10.8 8.2-14.9 11.8-4.1 3.6-10.2 10.2-13.5 14.6-3.4 4.4-7.6 10.3-9.2 13-1.6 2.8-4.5 8.4-6.4 12.5-1.8 4.1-4.4 11.5-5.7 16.5-2.2 8.7-2.3 10.5-2.3 51.3v42.2c6.6 0 11.9-0.6 16-1.4 4.1-0.8 11.3-2.7 16-4.1 4.7-1.5 12.3-4.6 17-6.9 4.7-2.3 10.3-5.5 12.5-7.2 2.3-1.6 6.7-5.1 9.8-7.9l5.7-5v-107.5l160.5 0.5c0 131.9-0.3 147.1-1.4 151.5-0.7 3-2.3 7.3-3.4 9.5-1.1 2.2-3.8 5.7-6.1 7.8-2.3 2-6.4 4.6-9.1 5.6-2.8 1-6.5 2.1-8.3 2.5-2.8 0.5-3.2 1-3.2 3.6v3c108.2 0 139.9-0.2 140.1-0.5 0.2-0.2 0.2-1.6-0.1-3-0.4-1.8-1.3-2.7-3.5-3.1-1.6-0.4-5.3-1.5-8-2.5-2.8-1-6.7-3.5-8.8-5.6-2.2-2.1-4.9-5.8-6.2-8.3-1.3-2.5-2.8-7.2-3.4-10.5-0.9-4.4-1.1-47.7-0.9-164l0.3-158c3.8-9.3 6.3-13.5 7.9-15.4 1.7-1.8 4.9-4.4 7.1-5.7 2.2-1.3 6.7-2.9 10-3.7 5.7-1.3 6-1.5 6-4.3v-2.9c-98.4 0-129.8 0.1-133.3 0.3z"/>
</svg>